<?xml version="1.0" encoding="utf-8"?>
<!-- Generator: Adobe Illustrator 19.2.0, SVG Export Plug-In . SVG Version: 6.00 Build 0)  -->
<svg version="1.1" id="Layer_1" xmlns="http://www.w3.org/2000/svg" xmlns:xlink="http://www.w3.org/1999/xlink" x="0px" y="0px"
	 viewBox="0 0 800 800" style="enable-background:new 0 0 800 800;" xml:space="preserve">
<style type="text/css">
	.st0{fill:#607D8B;}
	.st1{fill:#FFFFFF;}
</style>
<rect class="st0" width="800" height="800"/>
<g>
	<rect x="456.9" y="168.4" class="st1" width="216.3" height="460.5"/>
	<path class="st0" d="M668.2,173.4v450.5H461.9V173.4H668.2 M678.2,163.4h-10H461.9h-10v10v450.5v10h10h206.3h10v-10V173.4V163.4
		L678.2,163.4z"/>
</g>
<g>
	<rect x="305.2" y="113.2" class="st1" width="271.6" height="569.9"/>
	<path class="st0" d="M556.7,133.2v529.9H325.2V133.2H556.7 M596.7,93.2h-40H325.2h-40v40v529.9v40h40h231.6h40v-40V133.2V93.2
		L596.7,93.2z"/>
</g>
<g>
	<rect x="108.4" y="65.3" class="st1" width="338.9" height="672.3"/>
	<path class="st0" d="M427.4,85.3v632.3H128.4V85.3H427.4 M467.4,45.3h-40H128.4h-40v40v632.3v40h40h298.9h40v-40V85.3V45.3
		L467.4,45.3z"/>
</g>
<rect x="222.4" y="170.2" class="st0" width="108.1" height="74"/>
<rect x="224.4" y="352.8" class="st0" width="106.2" height="17.5"/>
<rect x="225.1" y="428.8" class="st0" width="83.5" height="17.5"/>
<rect x="225.1" y="501.6" class="st0" width="99.5" height="17.5"/>
</svg>
